<?xml version="1.0" encoding="utf-8"?>
<!-- Generator: Adobe Illustrator 21.0.0, SVG Export Plug-In . SVG Version: 6.00 Build 0)  -->
<svg version="1.1" xmlns="http://www.w3.org/2000/svg" xmlns:xlink="http://www.w3.org/1999/xlink" x="0px" y="0px"
	 viewBox="0 0 76.3 76.3" style="enable-background:new 0 0 76.3 76.3;" xml:space="preserve">
<style type="text/css">
	.st0{fill:none;stroke:#414141;stroke-width:2;stroke-miterlimit:10;}
	.st1{fill:none;stroke:#353535;stroke-miterlimit:10;}
</style>
<g id="Circle">
	<path class="st0" d="M75.3,38.1c0,20.5-16.6,37.2-37.1,37.2S1,58.7,1,38.2S17.6,1,38.1,1C58.6,1,75.2,17.5,75.3,38.1"/>
</g>
<g id="Ring">
	<g>
		<path class="st1" d="M50.4,52.8H18.1c-1.1,0-2-0.9-2-2V25.4c0-1.1,0.9-2,2-2h40c1.1,0,2,0.9,2,2v25.4c0,1.1-0.9,2-2,2h-7.5"/>
		<path class="st1" d="M33.2,35.4c2.3,1.4,4.2,2.3,5.2,2.3c4,0,20.9-13.8,20.9-13.8"/>
		<path class="st1" d="M16.9,23.8c0,0,9.5,7.5,16.1,11.5"/>
	</g>
</g>
<g id="Diamond">
</g>
</svg>
