<?xml version="1.0" encoding="utf-8"?>
<!-- Generator: Adobe Illustrator 21.0.0, SVG Export Plug-In . SVG Version: 6.00 Build 0)  -->
<svg version="1.1" xmlns="http://www.w3.org/2000/svg" xmlns:xlink="http://www.w3.org/1999/xlink" x="0px" y="0px"
	 viewBox="0 0 76.3 76.3" style="enable-background:new 0 0 76.3 76.3;" xml:space="preserve">
<style type="text/css">
	.st0{fill:none;stroke:#414141;stroke-width:2;stroke-miterlimit:10;}
	.st1{fill:none;stroke:#414141;stroke-miterlimit:10;}
	.st2{fill:none;stroke:#414141;stroke-width:0.5;stroke-miterlimit:10;}
</style>
<g id="Circle">
	<path class="st0" d="M75.3,38.1c0,20.5-16.6,37.2-37.1,37.2S1,58.7,1,38.2S17.6,1,38.1,1C58.6,1,75.2,17.5,75.3,38.1"/>
</g>
<g id="Body">
	<path class="st1" d="M55.9,54.5l-35.4,0.1c-0.8,0-1.5-0.7-1.5-1.5L19,26.3c0-0.8,0.7-1.5,1.5-1.5l35.4-0.1c0.8,0,1.5,0.7,1.5,1.5
		L57.4,53C57.4,53.8,56.7,54.5,55.9,54.5z"/>
	<path class="st1" d="M53.9,24.8l0-5.9c0-1-0.8-1.8-1.8-1.8l-8.4,0c-1,0-1.8,0.8-1.8,1.8l0,5.9"/>
	<path class="st1" d="M51.9,24.8l0-4.2c0-0.7-0.5-1.3-1.2-1.3l-5.6,0c-0.7,0-1.2,0.6-1.2,1.3l0,4.2"/>
</g>
<g id="Lens">
	<g>
		<path class="st1" d="M46.7,40.2c0,4.8-3.8,8.6-8.6,8.6c-4.8,0-8.6-3.8-8.6-8.6c0-4.8,3.8-8.6,8.6-8.6
			C42.8,31.6,46.6,35.4,46.7,40.2"/>
		<path class="st1" d="M44.8,40.2c0,3.8-3,6.8-6.8,6.8c-3.8,0-6.8-3-6.8-6.8c0-3.8,3-6.8,6.8-6.8C41.8,33.4,44.8,36.4,44.8,40.2"/>
	</g>
</g>
<g id="Reflection">
	<line class="st2" x1="34.3" y1="44.1" x2="41.8" y2="36.6"/>
	<line class="st2" x1="34.3" y1="42.6" x2="40.1" y2="36.8"/>
</g>
</svg>
