<?xml version="1.0" encoding="utf-8"?>
<!-- Generator: Adobe Illustrator 21.0.0, SVG Export Plug-In . SVG Version: 6.00 Build 0)  -->
<svg version="1.1" xmlns="http://www.w3.org/2000/svg" xmlns:xlink="http://www.w3.org/1999/xlink" x="0px" y="0px"
	 viewBox="0 0 76.3 76.3" style="enable-background:new 0 0 76.3 76.3;" xml:space="preserve">
<style type="text/css">
	.st0{fill:none;stroke:#414141;stroke-width:2;stroke-miterlimit:10;}
	.st1{fill:none;stroke:#353535;stroke-width:0.75;stroke-miterlimit:10;}
	.st2{fill:none;stroke:#000000;stroke-miterlimit:10;}
	.st3{fill:none;stroke:#000000;stroke-width:0.75;stroke-miterlimit:10;}
</style>
<g id="Circle">
	<path class="st0" d="M75.3,38.1c0,20.5-16.6,37.2-37.1,37.2S1,58.7,1,38.2S17.6,1,38.1,1C58.6,1,75.2,17.5,75.3,38.1"/>
</g>
<g id="Ring">
	<path class="st1" d="M58.5,49.8"/>
	<g>
		<path class="st2" d="M35.6,27"/>
		<path class="st3" d="M38.2,24.3c7.7,0.8,13.7,7.3,13.7,15.2c0,8.4-6.8,15.3-15.3,15.3s-15.3-6.8-15.3-15.3s6.8-15.3,15.3-15.3
			C37.2,24.2,37.6,24.2,38.2,24.3"/>
		<path class="st3" d="M38.1,26.8c6.4,0.7,11.3,6.1,11.3,12.6c0,7-5.7,12.7-12.7,12.7s-12.7-5.7-12.7-12.7s5.7-12.7,12.7-12.7
			c0.4,0,0.9,0,1.3,0.1"/>
	</g>
</g>
<g id="Diamond">
	<path class="st3" d="M46.9,20.4c1-1.1,2.4-1.7,4-1.7c3,0,5.5,2.5,5.5,5.5s-2.5,5.5-5.5,5.5c-3,0-5.5-2.5-5.5-5.5
		c0-1.4,0.5-2.7,1.4-3.7"/>
</g>
</svg>
