<?xml version="1.0" encoding="utf-8"?>
<!-- Generator: Adobe Illustrator 21.0.0, SVG Export Plug-In . SVG Version: 6.00 Build 0)  -->
<svg version="1.1" xmlns="http://www.w3.org/2000/svg" xmlns:xlink="http://www.w3.org/1999/xlink" x="0px" y="0px"
	 viewBox="0 0 76.3 76.3" style="enable-background:new 0 0 76.3 76.3;" xml:space="preserve">
<style type="text/css">
	.st0{fill:none;stroke:#414141;stroke-width:2;stroke-miterlimit:10;}
	.st1{fill:none;stroke:#000000;stroke-width:0.75;stroke-miterlimit:10;}
</style>
<g id="Circle">
	<path class="st0" d="M75.3,38.1c0,20.5-16.6,37.2-37.1,37.2S1,58.7,1,38.2S17.6,1,38.1,1C58.6,1,75.2,17.5,75.3,38.1"/>
</g>
<g id="Ring">
	<path class="st1" d="M46.6,36.4c2.3-1.1,3-3.3,3-3.3l4.2-12.5l-5.1,1.8L46.4,19l-4.2,1.2l-3.6-4.7L34.4,28c0,0-2,5.8,5.6,8.4
		c2.8,0.9,4.8,0.7,6.2,0.1"/>
	<path class="st1" d="M39.7,38.9c0,0-4.1,15.5-12.4,21.2"/>
	<path class="st1" d="M38.8,44.9c0,0,2.2-3.5,6.6-0.9c0,0-1.6,4.7-6.6,4.1"/>
	<path class="st1" d="M35.3,45.8c0,0-0.3-2.2-4.4-2.5c0,0-1,2.8,2.5,5.1"/>
</g>
<g id="Diamond">
</g>
</svg>
